<?xml version="1.0" encoding="UTF-8" standalone="no"?><!-- Generator: Gravit.io --><svg xmlns="http://www.w3.org/2000/svg" xmlns:xlink="http://www.w3.org/1999/xlink" style="isolation:isolate" viewBox="0 0 403 420" width="403pt" height="420pt"><defs><clipPath id="_clipPath_miTai3ySXI5g8N6376hKg99KXkdzLkN2"><rect width="403" height="420"/></clipPath></defs><g clip-path="url(#_clipPath_miTai3ySXI5g8N6376hKg99KXkdzLkN2)"><g><g><path d=" M 333.397 210 C 333.397 286.932 270.627 349.299 193.202 349.299 C 115.769 349.299 53 286.932 53 210 C 53 133.067 115.769 70.701 193.202 70.701 C 270.627 70.701 333.397 133.067 333.397 210 Z " fill="rgb(153,242,200)"/><path d=" M 309.702 194.533 C 309.702 168.636 282.603 147.569 249.294 147.569 C 241.105 147.569 233.3 148.854 226.177 151.158 C 237.972 162.113 245.123 176.328 245.123 191.858 C 245.123 208.922 236.204 224.76 221.686 236.25 C 226.177 238.062 231.002 239.452 236.092 240.337 C 236.726 240.45 237.311 240.751 237.77 241.204 L 262.237 265.516 L 262.237 242.934 C 262.237 241.458 263.282 240.182 264.737 239.88 C 291.216 234.429 309.702 215.779 309.702 194.533 Z " fill="rgb(153,242,200)"/><path d=" M 185.09 209.702 C 185.09 205.359 188.634 201.837 193.007 201.837 C 197.379 201.837 200.923 205.359 200.923 209.702 C 200.923 214.046 197.379 217.568 193.007 217.568 C 188.634 217.568 185.09 214.046 185.09 209.702 Z  M 166.472 217.568 C 162.106 217.568 158.562 214.046 158.562 209.702 C 158.562 205.359 162.106 201.837 166.472 201.837 C 170.844 201.837 174.388 205.359 174.388 209.702 C 174.388 214.046 170.844 217.568 166.472 217.568 Z  M 139.944 217.568 C 135.571 217.568 132.027 214.046 132.027 209.702 C 132.027 205.359 135.571 201.837 139.944 201.837 C 144.316 201.837 147.86 205.359 147.86 209.702 C 147.86 214.046 144.316 217.568 139.944 217.568 Z  M 238.849 191.858 C 238.849 160.764 206.382 135.466 166.479 135.466 C 126.568 135.466 94.103 160.764 94.103 191.858 C 94.103 217.386 116.263 239.777 148 246.313 C 149.455 246.614 150.499 247.889 150.499 249.365 L 150.499 277.616 L 180.585 247.728 C 181.038 247.274 181.623 246.973 182.263 246.86 C 215.051 241.159 238.849 218.026 238.849 191.858 Z " fill="rgb(153,242,200)"/><path d=" M 300.999 197.992 C 300.999 172.095 273.9 151.028 240.59 151.028 C 232.402 151.028 224.597 152.313 217.474 154.617 C 229.269 165.572 236.419 179.787 236.419 195.317 C 236.419 212.381 227.5 228.219 212.983 239.709 C 217.474 241.521 222.299 242.911 227.389 243.796 C 228.022 243.909 228.607 244.21 229.067 244.663 L 253.534 268.975 L 253.534 246.393 C 253.534 244.917 254.578 243.641 256.034 243.339 C 282.513 237.888 300.999 219.238 300.999 197.992 Z " fill="rgb(1,63,132)"/><path d=" M 176.387 213.161 C 176.387 208.818 179.931 205.296 184.303 205.296 C 188.676 205.296 192.22 208.818 192.22 213.161 C 192.22 217.505 188.676 221.027 184.303 221.027 C 179.931 221.027 176.387 217.505 176.387 213.161 Z  M 157.768 221.027 C 153.403 221.027 149.859 217.505 149.859 213.161 C 149.859 208.818 153.403 205.296 157.768 205.296 C 162.141 205.296 165.685 208.818 165.685 213.161 C 165.685 217.505 162.141 221.027 157.768 221.027 Z  M 131.24 221.027 C 126.868 221.027 123.324 217.505 123.324 213.161 C 123.324 208.818 126.868 205.296 131.24 205.296 C 135.613 205.296 139.157 208.818 139.157 213.161 C 139.157 217.505 135.613 221.027 131.24 221.027 Z  M 230.146 195.317 C 230.146 164.223 197.679 138.925 157.775 138.925 C 117.865 138.925 85.4 164.223 85.4 195.317 C 85.4 220.845 107.56 243.236 139.296 249.772 C 140.751 250.073 141.796 251.348 141.796 252.824 L 141.796 281.075 L 171.882 251.187 C 172.334 250.733 172.919 250.432 173.56 250.319 C 206.347 244.618 230.146 221.485 230.146 195.317 Z " fill="rgb(1,63,132)"/></g></g></g></svg>