<?xml version="1.0" encoding="UTF-8" standalone="no"?><!-- Generator: Gravit.io --><svg xmlns="http://www.w3.org/2000/svg" xmlns:xlink="http://www.w3.org/1999/xlink" style="isolation:isolate" viewBox="0 0 162 36" width="162pt" height="36pt"><defs><clipPath id="_clipPath_xVbasPproha9GRk6t8TmMaGx7J95bswH"><rect width="162" height="36"/></clipPath></defs><g clip-path="url(#_clipPath_xVbasPproha9GRk6t8TmMaGx7J95bswH)"><clipPath id="_clipPath_YZZTLTe3oXdB6SahWIvvejpY3iuUAmDK"><rect x="1" y="-5" width="160" height="46" transform="matrix(1,0,0,1,0,0)" fill="rgb(255,255,255)"/></clipPath><g clip-path="url(#_clipPath_YZZTLTe3oXdB6SahWIvvejpY3iuUAmDK)"><g><g><g><path d=" M 47.386 18 C 47.386 26.426 38.652 33.257 27.88 33.257 C 17.107 33.257 8.374 26.426 8.374 18 C 8.374 9.574 17.107 2.743 27.88 2.743 C 38.652 2.743 47.386 9.574 47.386 18 Z " fill="rgb(153,242,200)"/><path d=" M 44.089 16.306 C 44.089 13.47 40.319 11.162 35.684 11.162 C 34.545 11.162 33.459 11.303 32.468 11.555 C 34.109 12.755 35.104 14.312 35.104 16.013 C 35.104 17.882 33.863 19.617 31.843 20.875 C 32.468 21.073 33.139 21.226 33.848 21.323 C 33.936 21.335 34.017 21.368 34.081 21.418 L 37.485 24.08 L 37.485 21.607 C 37.485 21.445 37.631 21.306 37.833 21.273 C 41.517 20.676 44.089 18.633 44.089 16.306 Z " fill="rgb(153,242,200)"/><path d=" M 26.752 17.967 C 26.752 17.492 27.245 17.106 27.853 17.106 C 28.461 17.106 28.955 17.492 28.955 17.967 C 28.955 18.443 28.461 18.829 27.853 18.829 C 27.245 18.829 26.752 18.443 26.752 17.967 Z  M 24.161 18.829 C 23.554 18.829 23.061 18.443 23.061 17.967 C 23.061 17.492 23.554 17.106 24.161 17.106 C 24.77 17.106 25.263 17.492 25.263 17.967 C 25.263 18.443 24.77 18.829 24.161 18.829 Z  M 20.47 18.829 C 19.862 18.829 19.369 18.443 19.369 17.967 C 19.369 17.492 19.862 17.106 20.47 17.106 C 21.079 17.106 21.572 17.492 21.572 17.967 C 21.572 18.443 21.079 18.829 20.47 18.829 Z  M 34.231 16.013 C 34.231 12.607 29.714 9.837 24.162 9.837 C 18.609 9.837 14.093 12.607 14.093 16.013 C 14.093 18.809 17.176 21.261 21.591 21.977 C 21.794 22.01 21.939 22.15 21.939 22.311 L 21.939 25.406 L 26.125 22.132 C 26.188 22.082 26.269 22.049 26.358 22.037 C 30.92 21.413 34.231 18.879 34.231 16.013 Z " fill="rgb(153,242,200)"/><path d=" M 42.878 16.685 C 42.878 13.848 39.108 11.541 34.473 11.541 C 33.334 11.541 32.248 11.682 31.257 11.934 C 32.898 13.134 33.893 14.691 33.893 16.392 C 33.893 18.261 32.652 19.995 30.632 21.254 C 31.257 21.452 31.929 21.605 32.637 21.701 C 32.725 21.714 32.806 21.747 32.87 21.796 L 36.274 24.459 L 36.274 21.986 C 36.274 21.824 36.42 21.684 36.622 21.651 C 40.306 21.054 42.878 19.012 42.878 16.685 Z " fill="rgb(1,63,132)"/><path d=" M 25.541 18.346 C 25.541 17.871 26.034 17.485 26.642 17.485 C 27.251 17.485 27.744 17.871 27.744 18.346 C 27.744 18.822 27.251 19.208 26.642 19.208 C 26.034 19.208 25.541 18.822 25.541 18.346 Z  M 22.95 19.208 C 22.343 19.208 21.85 18.822 21.85 18.346 C 21.85 17.871 22.343 17.485 22.95 17.485 C 23.559 17.485 24.052 17.871 24.052 18.346 C 24.052 18.822 23.559 19.208 22.95 19.208 Z  M 19.259 19.208 C 18.651 19.208 18.158 18.822 18.158 18.346 C 18.158 17.871 18.651 17.485 19.259 17.485 C 19.868 17.485 20.361 17.871 20.361 18.346 C 20.361 18.822 19.868 19.208 19.259 19.208 Z  M 33.02 16.392 C 33.02 12.986 28.503 10.216 22.951 10.216 C 17.399 10.216 12.882 12.986 12.882 16.392 C 12.882 19.188 15.965 21.64 20.38 22.356 C 20.583 22.389 20.728 22.529 20.728 22.69 L 20.728 25.784 L 24.914 22.511 C 24.977 22.461 25.058 22.428 25.147 22.416 C 29.709 21.791 33.02 19.258 33.02 16.392 Z " fill="rgb(1,63,132)"/></g></g><clipPath id="_clipPath_oTKyXe58r29Keefx0CgQVXVkWt7bnW84"><rect x="53.73" y="10.552" width="53.546" height="14.893" transform="matrix(1,0,0,1,0,0)" fill="rgb(255,255,255)"/></clipPath><g clip-path="url(#_clipPath_oTKyXe58r29Keefx0CgQVXVkWt7bnW84)"><g><g clip-path="url(#_clipPath_DpbbJ04usTe4tQSThDlw6Uxm4QMhLESS)"><text transform="matrix(0.235,0,0,0.171,53.975,20.784)" style="font-family:'Gila';font-weight:700;font-size:60px;font-style:normal;font-variant-ligatures:none;fill:#013F84;stroke:none;">AGIST</text></g><defs><clipPath id="_clipPath_DpbbJ04usTe4tQSThDlw6Uxm4QMhLESS"><rect x="0" y="0" width="185" height="74.22" transform="matrix(0.235,0,0,0.171,53.853,10.554)"/></clipPath></defs></g></g><clipPath id="_clipPath_oZvXsqEZmW1v1vtbW5hZdVebGEfdakFv"><rect x="97.169" y="10.552" width="54.659" height="14.893" transform="matrix(1,0,0,1,0,0)" fill="rgb(255,255,255)"/></clipPath><g clip-path="url(#_clipPath_oZvXsqEZmW1v1vtbW5hZdVebGEfdakFv)"><g><g clip-path="url(#_clipPath_oFCaMSVDBLKGd0TfINF6GwR5KC7GZnRY)"><text transform="matrix(0.235,0,0,0.171,97.169,20.784)" style="font-family:'Gila';font-weight:400;font-size:60px;font-style:normal;font-variant-ligatures:none;fill:#545454;stroke:none;">STUDIO</text></g><defs><clipPath id="_clipPath_oFCaMSVDBLKGd0TfINF6GwR5KC7GZnRY"><rect x="0" y="0" width="232" height="74.22" transform="matrix(0.235,0,0,0.171,97.169,10.554)"/></clipPath></defs></g></g><path d=" M 54.706 25.448 L 109.102 25.448 C 109.641 25.448 110.078 25.792 110.078 26.216 L 110.078 31.36 C 110.078 31.784 109.641 32.129 109.102 32.129 L 54.706 32.129 C 54.168 32.129 53.73 31.784 53.73 31.36 L 53.73 26.216 C 53.73 25.792 54.168 25.448 54.706 25.448 Z " fill="rgb(153,242,200)"/><clipPath id="_clipPath_6lwYahaohGFz1jrm202uux2OIqgxffvW"><rect x="57" y="26.959" width="49.809" height="3.658" transform="matrix(1,0,0,1,0,0)" fill="rgb(255,255,255)"/></clipPath><g clip-path="url(#_clipPath_6lwYahaohGFz1jrm202uux2OIqgxffvW)"><g><g clip-path="url(#_clipPath_rsVgZdzCFcYud244e80t30sKhCeMrt0v)"><text transform="matrix(0.139,0,0,0.11,57,29.904)" style="font-family:'Gila';font-weight:400;font-size:27px;font-style:normal;font-variant-ligatures:none;fill:#FFFFFF;stroke:none;">messenger-based sales</text></g><defs><clipPath id="_clipPath_rsVgZdzCFcYud244e80t30sKhCeMrt0v"><rect x="0" y="0" width="358" height="33.399" transform="matrix(0.139,0,0,0.11,57,26.959)"/></clipPath></defs></g></g></g></g></g></svg>