<?xml version="1.0" encoding="UTF-8" standalone="no"?><!-- Generator: Gravit.io --><svg xmlns="http://www.w3.org/2000/svg" xmlns:xlink="http://www.w3.org/1999/xlink" style="isolation:isolate" viewBox="0 0 159.9 49.7" width="159.9pt" height="49.7pt"><defs><clipPath id="_clipPath_L4oRcD2GLK2KTLCSkz0Sd3UTzQkWoQTd"><rect width="159.9" height="49.7"/></clipPath></defs><g clip-path="url(#_clipPath_L4oRcD2GLK2KTLCSkz0Sd3UTzQkWoQTd)"><g><path d=" M 62.221 25.391 C 63.495 25.391 64.587 25.086 65.497 24.477 L 62.221 25.391 Z  M 63.423 22.006 C 62.221 22.006 61.257 21.619 60.529 20.846 C 59.801 20.072 59.437 19.003 59.437 17.638 C 59.437 16.273 59.801 15.199 60.529 14.416 C 61.257 13.634 62.221 13.243 63.422 13.243 C 64.587 13.243 65.547 13.638 66.302 14.43 C 67.058 15.222 67.436 16.291 67.436 17.638 C 67.436 18.966 67.058 20.027 66.303 20.818 C 65.547 21.61 64.587 22.006 63.423 22.006 Z  M 84.24 25.2 L 84.24 21.979 L 76.814 21.979 L 83.967 13.106 L 83.967 10.076 L 72.774 10.076 L 72.774 13.27 L 79.571 13.27 L 72.61 22.142 L 72.61 25.2 L 84.24 25.2 L 84.24 25.2 Z  M 87.53 7.81 C 88.24 7.81 88.814 7.614 89.25 7.223 C 89.687 6.832 89.906 6.336 89.906 5.735 C 89.906 5.116 89.687 4.611 89.25 4.22 C 88.814 3.829 88.24 3.633 87.53 3.633 C 86.82 3.633 86.247 3.829 85.81 4.22 C 85.374 4.611 85.155 5.116 85.155 5.735 C 85.155 6.335 85.374 6.832 85.811 7.223 C 86.247 7.614 86.821 7.81 87.531 7.81 L 87.53 7.81 Z  M 89.442 25.2 L 89.442 10.076 L 85.592 10.076 L 85.592 25.2 L 89.442 25.2 L 89.442 25.2 Z  M 95.735 25.2 L 95.735 17.174 C 95.735 15.882 96.054 14.899 96.691 14.225 C 97.328 13.552 98.183 13.215 99.257 13.215 C 100.294 13.215 101.109 13.529 101.7 14.157 C 102.292 14.785 102.588 15.681 102.588 16.847 L 102.588 25.2 L 106.41 25.2 L 106.41 17.174 C 106.41 15.882 106.728 14.899 107.365 14.225 C 108.002 13.552 108.857 13.215 109.931 13.215 C 110.969 13.215 111.783 13.529 112.375 14.157 C 112.966 14.785 113.262 15.681 113.262 16.847 L 113.262 25.2 L 117.084 25.2 L 117.084 16.41 C 117.084 14.316 116.551 12.701 115.487 11.564 C 114.422 10.426 112.971 9.857 111.132 9.857 C 109.968 9.857 108.917 10.162 107.979 10.772 L 95.735 25.2 Z  M 124.879 25.391 C 126.08 25.391 127.14 25.104 128.059 24.531 L 124.879 25.391 Z  M 144.413 25.2 L 144.413 21.897 L 142.912 21.897 C 142.22 21.897 141.729 21.751 141.437 21.46 C 141.147 21.169 141.001 20.66 141.001 19.931 L 141.001 13.324 L 144.386 13.324 L 144.386 10.076 L 141 10.076 L 141 6.336 L 137.15 6.336 L 137.15 10.076 L 135.048 10.076 L 135.048 13.324 L 137.15 13.324 L 137.15 19.877 C 137.15 21.787 137.6 23.153 138.502 23.972 C 139.402 24.791 140.699 25.2 142.392 25.2 L 144.412 25.2 L 144.413 25.2 Z  M 149.97 4.998 L 146.12 4.998 L 146.12 25.2 L 149.97 25.2 L 149.97 17.174 C 149.97 15.845 150.297 14.826 150.953 14.116 C 151.608 13.406 152.481 13.052 153.573 13.052 C 154.647 13.052 155.493 13.384 156.113 14.048 C 156.731 14.712 157.041 15.645 157.041 16.846 L 157.041 25.2 L 160.863 25.2 L 160.863 16.41 C 160.863 14.335 160.343 12.724 159.306 11.577 C 158.269 10.431 156.876 9.857 155.129 9.857 C 153.929 9.857 152.869 10.144 151.949 10.717" fill="rgb(44,47,59)"/><linearGradient id="_lgradient_2" x1="0" y1="0.5" x2="6.123233995736766e-17" y2="1.5" gradientTransform="matrix(0,34.65,-24.15,0,25.15,0)" gradientUnits="userSpaceOnUse"><stop offset="0%" stop-opacity="1" style="stop-color:rgb(0,90,255)"/><stop offset="100%" stop-opacity="1" style="stop-color:rgb(0,141,255)"/></linearGradient><path d=" M 25.15 24.15 L 25.15 34.65 L 1 22.575 L 11.5 17.325 L 1 12.075 L 25.15 0 L 25.15 10.5 L 11.5 17.325 L 25.15 24.15 Z " fill-rule="evenodd" fill="url(#_lgradient_2)"/><linearGradient id="_lgradient_3" x1="0" y1="0.5" x2="1" y2="0.5" gradientTransform="matrix(24.15,0,0,34.65,25.15,0)" gradientUnits="userSpaceOnUse"><stop offset="11.353000000000007%" stop-opacity="1" style="stop-color:rgb(0,154,255)"/><stop offset="100%" stop-opacity="1" style="stop-color:rgb(0,203,255)"/></linearGradient><path d=" M 25.15 10.5 L 25.15 0 L 49.3 12.075 L 38.8 17.325 L 49.3 22.575 L 25.15 34.65 L 25.15 24.15 L 38.8 17.325 L 25.15 10.5 Z " fill-rule="evenodd" fill="url(#_lgradient_3)"/></g><rect x="53" y="1" width="108" height="32" transform="matrix(1,0,0,1,0,0)" fill="rgb(255,255,255)"/><g clip-path="url(#_clipPath_ISFlGi8JpjR5VnAcA9w770D2IqrQcEBu)"><text transform="matrix(0.82,0,0,1.262,52,25.624)" style="font-family:'Roboto Condensed';font-weight:400;font-size:20px;font-style:normal;fill:#000000;stroke:none;">AGIST STUDIO</text></g><defs><clipPath id="_clipPath_ISFlGi8JpjR5VnAcA9w770D2IqrQcEBu"><rect x="0" y="0" width="128" height="23.438" transform="matrix(0.82,0,0,1.262,52,2.216)"/></clipPath></defs></g></svg>