<?xml version="1.0" encoding="UTF-8" standalone="no"?><!-- Generator: Gravit.io --><svg xmlns="http://www.w3.org/2000/svg" xmlns:xlink="http://www.w3.org/1999/xlink" style="isolation:isolate" viewBox="0 0 162 36" width="162pt" height="36pt"><defs><clipPath id="_clipPath_5f1T8BjMNFcPgRTOXRReJe1vtVpEaR3n"><rect width="162" height="36"/></clipPath></defs><g clip-path="url(#_clipPath_5f1T8BjMNFcPgRTOXRReJe1vtVpEaR3n)"><linearGradient id="_lgradient_8" x1="0" y1="0.5" x2="6.123233995736766e-17" y2="1.5" gradientTransform="matrix(0,34.65,-24.15,0,25.15,0)" gradientUnits="userSpaceOnUse"><stop offset="0%" stop-opacity="1" style="stop-color:rgb(0,90,255)"/><stop offset="100%" stop-opacity="1" style="stop-color:rgb(0,141,255)"/></linearGradient><path d=" M 25.15 24.15 L 25.15 34.65 L 1 22.575 L 11.5 17.325 L 1 12.075 L 25.15 0 L 25.15 10.5 L 11.5 17.325 L 25.15 24.15 Z " fill-rule="evenodd" fill="url(#_lgradient_8)"/><linearGradient id="_lgradient_9" x1="0" y1="0.5" x2="1" y2="0.5" gradientTransform="matrix(24.15,0,0,34.65,25.15,0)" gradientUnits="userSpaceOnUse"><stop offset="11.353000000000007%" stop-opacity="1" style="stop-color:rgb(0,154,255)"/><stop offset="100%" stop-opacity="1" style="stop-color:rgb(0,203,255)"/></linearGradient><path d=" M 25.15 10.5 L 25.15 0 L 49.3 12.075 L 38.8 17.325 L 49.3 22.575 L 25.15 34.65 L 25.15 24.15 L 38.8 17.325 L 25.15 10.5 Z " fill-rule="evenodd" fill="url(#_lgradient_9)"/><g clip-path="url(#_clipPath_J7I4vYFSgdkJtdLSUQNBctKzXA4KtjX1)"><text transform="matrix(0.915,0,0,1.395,56,27.483)" style="font-family:'Righteous';font-weight:400;font-size:20px;font-style:normal;fill:#000000;stroke:none;">AgistStudio</text></g><defs><clipPath id="_clipPath_J7I4vYFSgdkJtdLSUQNBctKzXA4KtjX1"><rect x="0" y="0" width="113.658" height="24.834" transform="matrix(0.915,0,0,1.395,56,0)"/></clipPath></defs></g></svg>